<svg t="1742201954305" class="icon" viewBox="0 0 1024 1024" version="1.1" xmlns="http://www.w3.org/2000/svg" p-id="16430" width="200" height="200"><path d="M945.125 253.1c-7.412-10.319-18.32-17.776-31.776-23.153 0.543 12.384-0.219 22.548-2.688 30.69L749.083 792.234c-5.748 18.898-27.999 30.677-49.009 30.677h-497.11c-43.091 0-68.653-12.494-77.574-37.697-3.465-9.79-3.353-17.313 0.546-23.156 3.652-5.47 10.769-8.08 20.481-8.08H614.44c33.39 0 56.404-6.06 68.945-18.305 12.788-12.524 25.887-40.37 38.77-82.949l147.576-487.95c7.988-26.415 4.846-50.096-9.698-70.018-14.545-19.937-35.008-30.16-61.393-30.16H388.764c-4.847 0-14 1.614-27.473 4.848l0.545-1.617c-68.948-19.394-71.946 54.558-95.334 87.794-7.303 10.397-21.957 25.875-23.697 33.395-1.49 6.48 3.357 22.08 2.704 28.003-1.49 13.488-6.695 31.14-15.088 52.226-8.314 20.916-15.618 36.114-22.625 45.249l-11.84 12.385c-6.06 6.34-10.24 11.311-11.841 16.16-1.632 1.615-1.897 7.04-0.545 15.073 1.352 8.144 2.068 14.003 1.617 17.248-1.709 12.37-5.919 28.546-13.473 48.466-7.535 19.936-15.198 36.55-22.608 49.555-1.198 2.096-4.32 6.465-9.17 12.383-4.831 5.922-8.096 11.297-9.152 15.09-1.647 5.905 2.161 24.225 0 31.234-2.688 13.45-7.97 30.201-16.159 49.53-7.972 18.895-16.117 35.585-24.242 49.042-7.49 12.399-21.319 26.384-22.066 36.608-0.325 4.35 3.87 16.162 3.217 22.066l-2.144 19.952c-0.871 8.114-1.617 12.93-1.617 14.545-8.081 21.54-7.66 44.194 1.071 68.403 10.117 28.033 28.051 51.655 53.332 70.55 25.889 19.328 52.771 29.089 80.245 29.089h497.11c23.154 0 45.142-8.205 65.716-23.713 20.9-15.757 34.436-34.466 41.474-57.622l148.102-487.965c7.864-25.903 4.973-49.102-9.698-69.475zM338.681 357.584c2.969-9.077 13.473-17.232 22.61-17.232h327.47c10.224 0 14.825 8.155 11.841 17.232l-11.296 34.464c-2.984 9.077-13.473 17.233-22.626 17.233H339.21c-10.225 0-14.824-8.157-11.84-17.233l11.311-34.464z m44.69-137.878c2.985-9.077 13.474-17.233 22.626-17.233h327.47c10.243 0 14.824 8.157 11.84 17.233l-11.31 34.464c-2.968 9.075-13.474 17.248-22.611 17.248h-327.47c-10.225 0-14.824-8.175-11.84-17.248l11.296-34.464z" p-id="16431" fill="#2c2c2c"></path></svg>