<svg t="1742203382088" class="icon" viewBox="0 0 1024 1024" version="1.1" xmlns="http://www.w3.org/2000/svg" p-id="13968" width="200" height="200"><path d="M928 345.6H704v76.8h224V345.6zM300.8 172.8L25.6 851.2h96L204.8 640h275.2s83.2 211.2 83.2 217.6h96L384 172.8H300.8z m-64 384l102.4-262.4L448 556.8H236.8zM896 512v25.6c-51.2-32-115.2-32-166.4 0-83.2 44.8-108.8 147.2-64 230.4s147.2 108.8 230.4 64v19.2h83.2V512H896z m-83.2 256c-51.2 0-89.6-38.4-83.2-83.2 0-44.8 38.4-83.2 83.2-83.2s83.2 38.4 83.2 83.2-38.4 83.2-83.2 83.2z" p-id="13969" fill="#2c2c2c"></path></svg>