<svg t="1742203209127" class="icon" viewBox="0 0 1024 1024" version="1.1" xmlns="http://www.w3.org/2000/svg" p-id="24428" width="200" height="200"><path d="M909.312 7.68H114.688C57.344 7.68 10.24 54.272 10.24 112.128V906.24c0 57.856 47.104 104.448 104.448 104.448h794.112c57.856 0 104.448-46.592 104.448-104.448V112.128c0.512-57.856-46.592-104.448-103.936-104.448z m27.648 880.128c0 22.016-17.92 39.936-39.936 39.936H131.584c-22.016 0-39.936-17.92-39.936-39.936V122.368c0-22.016 17.92-39.936 39.936-39.936h765.44c22.016 0 39.936 17.92 39.936 39.936v765.44z" p-id="24429" fill="#2c2c2c"></path><path d="M314.368 311.296h0.512c7.168 0 14.336-3.072 18.944-8.704 4.608-5.632 7.168-13.312 7.168-23.552 0-10.24-4.096-20.992-11.776-33.792-8.192-12.8-21.504-22.016-40.448-27.136-17.92-5.12-34.304-7.68-49.152-7.68-17.408 0-19.968 8.192-19.968 12.8 0 3.584 0 9.728 37.888 49.152 26.112 26.112 44.544 38.912 56.832 38.912zM246.272 502.272c10.24 0 22.528-6.144 22.528-35.84 0-22.016-10.24-39.424-30.208-51.712-19.456-11.776-41.472-17.408-65.536-17.408-18.944 0-21.504 9.216-21.504 14.848 0 5.632 4.608 15.872 37.376 50.688 26.112 27.136 44.032 39.424 57.344 39.424zM359.424 455.68c0-13.312-8.704-14.336-11.264-14.336-7.68 0-15.36 8.192-27.136 28.672-19.456 37.888-44.032 81.408-72.192 130.048-28.16 48.128-45.056 76.288-50.688 83.456-4.608 6.656-11.264 11.776-18.432 14.848-9.728 4.608-14.848 11.776-14.848 20.992 0 11.776 7.168 30.208 22.016 55.808 15.36 26.624 27.648 39.424 38.4 39.424 16.896 0 20.48-26.624 21.504-35.328 2.56-19.968 13.824-57.856 32.768-111.616 22.528-62.976 46.592-124.928 71.168-184.32 5.632-11.264 8.704-20.48 8.704-27.648z" p-id="24430" fill="#2c2c2c"></path><path d="M893.44 744.448c-68.608-11.776-126.976-31.744-174.08-57.856-47.104-27.136-89.088-62.464-123.392-104.448 28.672-47.616 53.76-107.52 75.776-176.64 12.288-37.888 27.136-64.512 45.056-79.36 13.824-11.776 20.992-22.016 20.992-30.72 0-5.632-3.584-15.872-34.816-36.352-23.04-15.36-38.912-22.528-48.64-22.528h-0.512c-9.216 0-17.92 3.072-25.088 8.704-21.504 15.872-56.832 30.208-104.96 41.984-48.128 11.776-89.6 18.432-122.368 19.968-15.36 1.024-23.04 5.12-23.04 13.312 0 7.168 6.656 13.824 20.48 21.504 12.288 6.656 25.088 10.24 37.888 10.24 12.288 0 41.472-6.656 86.528-20.48 44.544-13.312 76.8-19.968 96.256-19.968 4.096 0 6.144 1.024 6.144 7.168 0 10.752-6.144 39.424-18.944 84.992-11.776 43.008-28.16 86.016-49.664 128-25.6-33.28-40.96-55.808-48.128-68.096-33.792-59.392-71.68-89.6-112.128-89.6-15.36 0-17.408 9.216-17.408 13.312 0 7.68 6.656 15.872 20.992 25.6 12.288 8.704 28.16 24.576 46.592 46.08 18.432 21.504 46.08 60.416 84.992 119.296-22.528 34.304-53.248 66.048-92.672 94.208-40.448 28.672-84.48 51.2-131.584 66.56-4.608 1.536-17.92 6.656-17.92 16.384 0 11.776 18.432 11.776 24.064 11.776 39.936 0 82.944-12.8 128-37.376 43.008-23.552 84.48-58.368 122.368-103.424 20.992 30.72 43.52 60.416 67.584 88.576 29.184 34.304 49.664 55.296 62.976 62.976 13.824 8.192 32.768 11.776 56.32 11.776 24.064 0 53.248-2.048 86.528-5.632 47.104-5.12 58.368-8.192 63.488-10.24 6.656-2.56 13.824-6.656 13.824-13.312 1.024-9.216-6.656-14.336-21.504-16.384z" p-id="24431" fill="#2c2c2c"></path></svg>